<?xml version="1.0" standalone="no"?><!DOCTYPE svg PUBLIC "-//W3C//DTD SVG 1.1//EN" "http://www.w3.org/Graphics/SVG/1.1/DTD/svg11.dtd"><svg t="1516343592000" class="icon" style="" viewBox="0 0 1024 1024" version="1.1" xmlns="http://www.w3.org/2000/svg" p-id="1483" xmlns:xlink="http://www.w3.org/1999/xlink" width="200" height="200"><defs><style type="text/css"></style></defs><path d="M919.694911 109.289102c-51.194986-51.196009-134.219911-51.196009-185.378058-0.019443l-8.423857 8.405437c78.679967 42.008766 143.483902 106.546641 185.68198 185.110975l8.120958-8.119935C970.889897 243.472174 970.889897 160.483064 919.694911 109.289102z" p-id="1484" fill="#d81e06"></path><path d="M298.260499 119.123075l-9.834996-9.854439c-51.233871-51.176566-134.220934-51.176566-185.41592 0.019443-51.196009 51.194986-51.196009 134.183072 0 185.378058l11.111059 11.112082C155.767158 226.889497 219.92334 161.702845 298.260499 119.123075z" p-id="1485" fill="#d81e06"></path><path d="M513.582543 121.639384c-217.952964 0-394.639059 176.686095-394.639059 394.619616 0 105.171318 41.131793 200.717418 108.178815 271.449365l-24.733311 178.00616 146.335856-90.796936c50.167586 23.094998 106.007359 35.981493 164.858722 35.981493 58.924018 0 114.825189-12.917194 165.035754-36.066427l146.500609 90.88187L800.351825 787.358395c66.841338-70.696132 107.829867-166.099992 107.829867-271.099395C908.181693 298.325479 731.534484 121.639384 513.582543 121.639384zM513.582543 828.291666c-172.322717 0-312.032666-139.672086-312.032666-312.032666 0-172.321694 139.709949-312.013223 312.032666-312.013223 172.36058 0 312.032666 139.691529 312.032666 312.013223C825.615209 688.61958 685.942099 828.291666 513.582543 828.291666z" p-id="1486" fill="#d81e06"></path><path d="M509.522064 321.884035 448.492082 321.884035 448.492082 516.259 448.492082 576.888869 448.492082 577.347311 703.51636 577.347311 703.51636 516.259 509.522064 516.259Z" p-id="1487" fill="#d81e06"></path></svg>