<?xml version="1.0"?>
<!DOCTYPE svg PUBLIC "-//W3C//DTD SVG1.1//EN"
    "http://www.w3.org/Graphics/SVG/1.1/DTD/svg1.1.dtd">
<svg xmlns="http://www.w3.org/2000/svg" 
    xmlns:xlink="http://www.w3.org/1999/xlink" width="154" height="204" viewBox="0 0 308 408">
    <defs>
        <g id="corner">
            <text x="40" y="12" style="writing-mode:tb;text-orientation: upright;font-family:Bitstream Vera Sans;font-size:42px;fill:black;letter-spacing:-15;">JOKER</text>
        </g>
    </defs>
   
    <rect x="8" y="8" width="300" height="400" rx="12" ry="12" style="stroke:none;fill:black;opacity:0.6;" />
    <rect x="2" y="2" width="300" height="400" rx="12" ry="12" style="stroke:black;fill:white;stroke-width:4"/>
    <use xlink:href="#diamond" x="2" y="100" width="300" height="200"/>
    <svg x="2" y="120" width="300" height="160" viewBox="0 0 300 281" preserveAspectRatio="xMidYMid meet">
        <g transform="translate(0.000000,281.000000) scale(0.100000,-0.100000)" fill="#060606" stroke="none">
            <path d="M1422 2793 c-95 -47 -111 -186 -30 -259 12 -12 34 -25 47 -29 28 -8
            27 -17 -14 -250 -14 -82 -35 -199 -45 -260 -28 -164 -65 -372 -95 -535 -15
            -80 -29 -160 -32 -177 -7 -39 -19 -35 -29 10 -3 17 -12 45 -20 62 -7 16 -38
            104 -69 195 -31 91 -61 174 -66 185 -5 11 -24 67 -43 125 -20 58 -67 196 -105
            308 l-70 202 30 22 c44 33 69 82 69 137 0 157 -208 213 -298 80 -20 -28 -23
            -44 -20 -89 5 -69 34 -111 96 -140 l45 -21 -7 -132 c-19 -365 -26 -495 -35
            -632 -6 -82 -13 -213 -17 -290 l-7 -140 -76 155 c-203 415 -375 772 -383 800
            -3 8 10 32 28 53 31 33 34 43 34 98 0 73 -17 110 -67 139 -109 64 -243 -9
            -243 -132 0 -85 44 -137 129 -157 24 -5 44 -11 45 -13 2 -1 10 -66 20 -143 10
            -77 26 -210 37 -295 10 -85 28 -231 39 -325 11 -93 25 -192 30 -218 6 -26 10
            -61 10 -77 0 -21 27 -62 106 -162 124 -154 138 -177 183 -278 18 -41 41 -93
            52 -116 23 -49 23 -57 5 -97 -33 -74 -74 -175 -86 -211 -11 -35 -11 -41 6 -53
            10 -7 24 -13 31 -13 7 0 13 -3 13 -8 0 -20 212 -86 323 -101 98 -14 1013 -14
            1115 -1 120 16 357 97 377 129 9 16 -21 104 -91 258 -18 41 -18 45 10 106 13
            29 32 72 42 97 38 90 71 142 182 280 85 107 112 147 112 170 0 16 4 51 10 77
            5 26 19 125 30 218 11 94 29 240 39 325 11 85 27 218 37 295 10 77 18 142 20
            143 1 2 21 8 45 13 85 20 129 72 129 157 0 123 -134 196 -243 132 -59 -35 -80
            -89 -66 -166 6 -31 20 -59 38 -79 34 -36 33 -38 -46 -200 -27 -55 -92 -188
            -144 -295 -52 -107 -128 -265 -170 -350 l-76 -155 -7 140 c-4 77 -11 208 -17
            290 -11 169 -38 683 -39 732 0 29 5 35 43 53 61 29 90 72 95 140 3 45 0 61
            -20 89 -33 49 -79 73 -138 73 -159 0 -220 -194 -91 -290 l30 -22 -70 -202
            c-38 -112 -85 -250 -105 -308 -19 -58 -38 -114 -43 -125 -5 -11 -35 -94 -66
            -185 -31 -91 -62 -179 -69 -195 -8 -17 -17 -45 -20 -62 -10 -45 -22 -49 -29
            -10 -3 17 -17 97 -32 177 -30 163 -67 371 -95 535 -10 61 -31 178 -45 260 -41
            233 -42 242 -14 250 89 27 129 156 75 236 -44 65 -141 88 -214 52z m238 -1863
            c174 -10 210 -16 430 -71 177 -44 296 -91 306 -121 7 -22 -11 -48 -33 -48 -8
            0 -67 18 -132 39 -257 87 -462 121 -733 121 -271 0 -468 -33 -734 -122 -67
            -23 -129 -38 -138 -35 -26 10 -31 37 -9 58 35 35 229 100 408 135 39 8 84 19
            101 24 17 6 96 14 175 19 79 4 153 9 164 9 11 1 99 -3 195 -8z m144 -304 c133
            -25 324 -87 411 -134 43 -23 50 -31 50 -57 0 -27 -3 -30 -30 -29 -16 1 -55 11
            -85 24 -92 38 -241 87 -315 105 -177 41 -474 43 -650 3 -90 -20 -231 -65 -335
            -108 -30 -13 -68 -23 -85 -24 -27 -1 -30 2 -30 29 0 26 7 34 50 57 94 51 315
            121 435 137 41 6 86 13 100 15 60 10 400 -2 484 -18z m-49 -276 c203 -26 484
            -99 605 -158 41 -20 46 -51 11 -68 -25 -13 -19 -14 -181 41 -180 62 -335 92
            -537 104 -321 20 -578 -14 -873 -113 -125 -42 -137 -44 -158 -30 -49 32 -15
            60 133 110 185 61 328 95 485 114 82 10 435 10 515 0z" id="node1" class="node"></path>
        </g>
        <g transform="translate(0.000000,281.000000) scale(0.100000,-0.100000)" fill="#F1915B" stroke="none">
            <path d="M1301 929 c-79 -5 -158 -13 -175 -19 -17 -5 -62 -16 -101 -24 -179
            -35 -373 -100 -408 -135 -22 -21 -17 -48 9 -58 9 -3 71 12 138 35 266 89 463
            122 734 122 271 0 476 -34 733 -121 130 -43 141 -45 159 -24 44 54 -87 108
            -485 199 -60 14 -377 38 -440 34 -11 0 -85 -5 -164 -9z" id="node6" class="node"></path>
            <path d="M1320 644 c-14 -2 -59 -9 -100 -15 -120 -16 -341 -86 -435 -137 -43
            -23 -50 -31 -50 -57 0 -27 3 -30 30 -29 17 1 55 11 85 24 104 43 245 88 335
            108 176 40 473 38 650 -3 74 -18 223 -67 315 -105 30 -13 69 -23 85 -24 27 -1
            30 2 30 29 0 26 -7 34 -50 57 -87 47 -278 109 -411 134 -84 16 -424 28 -484
            18z" id="node7" class="node"></path>
            <path d="M1240 350 c-157 -19 -300 -53 -485 -114 -148 -50 -182 -78 -133 -110
            21 -14 33 -12 158 30 214 72 358 101 567 113 311 19 585 -15 843 -104 162 -55
            156 -54 181 -41 35 17 30 48 -11 68 -121 59 -402 132 -605 158 -80 10 -433 10
            -515 0z" id="node8" class="node"></path>
        </g>
    </svg>
    <use xlink:href="#corner" x="0" y="0"/>
    <use xlink:href="#corner" transform="translate(304, 404) rotate(180)"/>
</svg>